<svg width="22" height="22" viewBox="0 0 22 22" fill="none" xmlns="http://www.w3.org/2000/svg">
<path d="M19.5312 0H2.34375C1.72215 0 1.12601 0.24693 0.686468 0.686469C0.24693 1.12601 0 1.72215 0 2.34375L0 19.5312C0 20.1529 0.24693 20.749 0.686468 21.1885C1.12601 21.6281 1.72215 21.875 2.34375 21.875H9.04541V14.438H5.96924V10.9375H9.04541V8.26953C9.04541 5.23486 10.8521 3.55859 13.6191 3.55859C14.9443 3.55859 16.3301 3.79492 16.3301 3.79492V6.77344H14.8032C13.2988 6.77344 12.8296 7.70703 12.8296 8.66455V10.9375H16.188L15.6509 14.438H12.8296V21.875H19.5312C20.1529 21.875 20.749 21.6281 21.1885 21.1885C21.6281 20.749 21.875 20.1529 21.875 19.5312V2.34375C21.875 1.72215 21.6281 1.12601 21.1885 0.686469C20.749 0.24693 20.1529 0 19.5312 0V0Z" fill="black"/>
</svg>
