<svg width="22" height="22" viewBox="0 0 22 22" fill="none" xmlns="http://www.w3.org/2000/svg">
<path d="M13.8281 15.3076C13.96 15.4395 13.96 15.6396 13.8281 15.7568C12.6318 16.9531 9.24805 16.958 8.04688 15.7568C7.91504 15.6396 7.91504 15.4395 8.04688 15.3076C8.16406 15.1904 8.36426 15.1904 8.48145 15.3076C9.39453 16.2451 12.4365 16.2646 13.3887 15.3076C13.5059 15.1953 13.7109 15.1953 13.8281 15.3076ZM9.37012 12.6807C9.37012 11.9531 8.78906 11.3721 8.07617 11.3721C7.34863 11.3721 6.76758 11.9531 6.76758 12.6807C6.76758 13.3936 7.34863 13.9746 8.07617 13.9746C8.78906 13.9746 9.37012 13.3936 9.37012 12.6807ZM13.7988 11.3721C13.0859 11.3721 12.5049 11.9531 12.5049 12.6807C12.5049 13.3936 13.0859 13.9746 13.7988 13.9746C14.5264 13.9746 15.1074 13.3936 15.1074 12.6807C15.1074 11.9531 14.5264 11.3721 13.7988 11.3721ZM21.875 2.34375V19.5312C21.875 20.8252 20.8252 21.875 19.5312 21.875H2.34375C1.0498 21.875 0 20.8252 0 19.5312V2.34375C0 1.0498 1.0498 0 2.34375 0H19.5312C20.8252 0 21.875 1.0498 21.875 2.34375ZM17.0068 9.20898C16.5137 9.20898 16.0791 9.41406 15.7568 9.73145C14.5801 8.91602 12.998 8.39355 11.2402 8.33496L12.1533 4.22363L15.0586 4.87793C15.0586 5.59082 15.6396 6.17187 16.3525 6.17187C17.0801 6.17187 17.6611 5.57617 17.6611 4.86328C17.6611 4.15039 17.0801 3.55469 16.3525 3.55469C15.8447 3.55469 15.4102 3.85742 15.1904 4.28223L11.9824 3.56934C11.8213 3.52539 11.665 3.64258 11.6211 3.80371L10.6201 8.33496C8.87695 8.4082 7.30957 8.93066 6.13281 9.74609C5.81543 9.41406 5.36133 9.20898 4.86816 9.20898C3.03711 9.20898 2.43652 11.6699 4.11133 12.5049C4.05273 12.7686 4.02344 13.042 4.02344 13.3203C4.02344 16.0791 7.13379 18.3154 10.9521 18.3154C14.7852 18.3154 17.8955 16.0791 17.8955 13.3203C17.8955 13.042 17.8662 12.7539 17.793 12.4902C19.4336 11.6504 18.8281 9.20898 17.0068 9.20898V9.20898Z" fill="black"/>
</svg>
