<svg width="22" height="22" viewBox="0 0 22 22" fill="none" xmlns="http://www.w3.org/2000/svg">
<path d="M21.875 2.34375V19.5312C21.875 20.8257 20.8257 21.875 19.5312 21.875H2.34375C1.04932 21.875 0 20.8257 0 19.5312V2.34375C0 1.04932 1.04932 0 2.34375 0H19.5312C20.8257 0 21.875 1.04932 21.875 2.34375ZM14.8438 12.8906C14.1327 12.8906 13.4852 13.1622 12.9989 13.607L9.68062 11.616C9.79394 11.1708 9.79394 10.7042 9.68062 10.2589L12.9989 8.26797C13.4852 8.71284 14.1327 8.98438 14.8438 8.98438C16.3539 8.98438 17.5781 7.76016 17.5781 6.25C17.5781 4.73984 16.3539 3.51562 14.8438 3.51562C13.3336 3.51562 12.1094 4.73984 12.1094 6.25C12.1094 6.48423 12.1389 6.71157 12.1943 6.92856L8.87607 8.91953C8.38979 8.47466 7.74229 8.20312 7.03125 8.20312C5.52109 8.20312 4.29688 9.42734 4.29688 10.9375C4.29688 12.4477 5.52109 13.6719 7.03125 13.6719C7.74229 13.6719 8.3898 13.4003 8.87612 12.9555L12.1944 14.9465C12.1378 15.1682 12.1093 15.3962 12.1094 15.625C12.1094 17.1352 13.3336 18.3594 14.8438 18.3594C16.354 18.3594 17.5782 17.1352 17.5782 15.625C17.5781 14.1148 16.3539 12.8906 14.8438 12.8906Z" fill="black"/>
</svg>
